<?xml version="1.0" encoding="UTF-8" standalone="no"?>
<!-- Created with Inkscape (http://www.inkscape.org/) -->

<svg
   xmlns:dc="http://purl.org/dc/elements/1.1/"
   xmlns:cc="http://creativecommons.org/ns#"
   xmlns:rdf="http://www.w3.org/1999/02/22-rdf-syntax-ns#"
   xmlns:svg="http://www.w3.org/2000/svg"
   xmlns="http://www.w3.org/2000/svg"
   xmlns:sodipodi="http://sodipodi.sourceforge.net/DTD/sodipodi-0.dtd"
   xmlns:inkscape="http://www.inkscape.org/namespaces/inkscape"
   width="213.15216mm"
   height="229.24159mm"
   viewBox="0 0 213.15216 229.24159"
   version="1.1"
   id="svg8"
   sodipodi:docname="Countries for download V2.svg"
   inkscape:version="0.92.4 (5da689c313, 2019-01-14)"
   inkscape:export-filename="D:\Downloads\Sonstiges\Neuer Ordner\Countries available.png"
   inkscape:export-xdpi="29.790001"
   inkscape:export-ydpi="29.790001">
  <defs
     id="defs2" />
  <sodipodi:namedview
     id="base"
     pagecolor="#ffffff"
     bordercolor="#666666"
     borderopacity="1.0"
     inkscape:pageopacity="0.0"
     inkscape:pageshadow="2"
     inkscape:zoom="0.49497475"
     inkscape:cx="170.40598"
     inkscape:cy="569.32112"
     inkscape:document-units="mm"
     inkscape:current-layer="layer1"
     showgrid="true"
     showguides="true"
     inkscape:snap-global="false"
     inkscape:window-width="1920"
     inkscape:window-height="1028"
     inkscape:window-x="-8"
     inkscape:window-y="-8"
     inkscape:window-maximized="1">
    <inkscape:grid
       type="xygrid"
       id="grid3717"
       originx="-11.207824"
       originy="-91.608143" />
  </sodipodi:namedview>
  <metadata
     id="metadata5">
    <rdf:RDF>
      <cc:Work
         rdf:about="">
        <dc:format>image/svg+xml</dc:format>
        <dc:type
           rdf:resource="http://purl.org/dc/dcmitype/StillImage" />
        <dc:title />
      </cc:Work>
    </rdf:RDF>
  </metadata>
  <g
     inkscape:label="Ebene 1"
     inkscape:groupmode="layer"
     id="layer1"
     transform="translate(-11.207823,23.849731)">
    <path
       style="fill:none;stroke:#000000;stroke-width:15;stroke-linecap:round;stroke-linejoin:round;stroke-miterlimit:7;stroke-dasharray:none;stroke-opacity:1"
       d="m 185.47351,91.829957 -0.0334,-9.416126 m 0.002,-0.02096 -92.531656,-0.321639 m -56.329881,0.377688 -17.494552,-0.0254 -0.37815,115.46834 166.954769,-0.18194"
       id="path4621"
       inkscape:connector-curvature="0"
       sodipodi:nodetypes="cccccccc"
       inkscape:export-filename="D:\Downloads\Sonstiges\Neuer Ordner\Countries for download.svg.png"
       inkscape:export-xdpi="29.790001"
       inkscape:export-ydpi="29.790001" />
    <path
       style="fill:none;stroke:#000000;stroke-width:15;stroke-linecap:round;stroke-linejoin:round;stroke-miterlimit:7;stroke-dasharray:none;stroke-opacity:1"
       d="m 18.707821,197.70993 28.172432,-83.64912 69.580247,-0.33194 7.75215,-13.775545 92.6476,10e-6 -30.81951,97.756595 z"
       id="path4623"
       inkscape:connector-curvature="0"
       sodipodi:nodetypes="ccccccc"
       inkscape:export-filename="D:\Downloads\Sonstiges\Neuer Ordner\Countries for download.svg.png"
       inkscape:export-xdpi="29.790001"
       inkscape:export-ydpi="29.790001" />
    <g
       id="g826"
       transform="translate(-24.568928,-6.2786189)"
       inkscape:export-filename="D:\Downloads\Sonstiges\Neuer Ordner\Countries for download.svg.png"
       inkscape:export-xdpi="29.790001"
       inkscape:export-ydpi="29.790001">
      <g
         id="g850"
         transform="translate(34.210499,0.53453905)">
        <circle
           id="path3715"
           cx="145.43594"
           cy="30.444544"
           style="fill:none;fill-opacity:1;stroke:#130000;stroke-width:12.5;stroke-miterlimit:4;stroke-dasharray:none;stroke-opacity:1"
           r="41.765656" />
        <path
           style="fill:#000000;fill-opacity:1;stroke:#000000;stroke-width:0.21610332;stroke-linecap:butt;stroke-linejoin:miter;stroke-miterlimit:4;stroke-dasharray:none;stroke-opacity:1"
           d="m 109.96305,22.926949 c 9.70936,-4.31528 9.70936,3.23646 18.3399,3.23645 8.63054,1.07882 3.23645,12.94581 2.15763,25.89162 -0.85164,4.83613 0,10.788175 1.69529,13.562273 -3.85292,-3.852913 -9.24701,-4.931723 -11.67435,-12.290803 -3.35062,-10.15823 -14.83375,-10.98083 -10.51847,-30.39954 z"
           id="path4570"
           inkscape:connector-curvature="0"
           sodipodi:nodetypes="ccccsc" />
        <path
           style="fill:#000000;fill-opacity:1;stroke:#000000;stroke-width:0.95003909;stroke-linecap:butt;stroke-linejoin:miter;stroke-miterlimit:4;stroke-dasharray:none;stroke-opacity:1"
           d="M 170.51453,9.7300195 C 159.41811,13.50588 156.18165,7.0329798 147.55111,10.269439 142.51505,13.40577 141.0782,14.5847 141.0782,19.9788 c -0.71922,3.59605 0,6.4729 3.23645,10.78817 5.39409,2.15764 10.98839,-2.90124 15.10345,0 4.62351,9.16995 0.70914,16.082712 9.33968,20.397982 4.31528,1.07882 2.52732,-3.368082 7.92141,-7.683352 0,-6.47291 1.38705,-10.63406 3.29425,-17.9546 0.89588,-3.43875 -6.5307,-3.39057 -9.45891,-15.7969805 z"
           id="path4582"
           inkscape:connector-curvature="0"
           sodipodi:nodetypes="cccccccsc" />
        <path
           style="fill:#000000;fill-opacity:1;stroke:#000000;stroke-width:0.21576352px;stroke-linecap:butt;stroke-linejoin:miter;stroke-opacity:1"
           d="m 151.05363,-7.6552074 c -1.08815,1.6996299 -2.2191,4.0271199 -3.23646,6.47291 -1.67024,2.2566799 -4.31464,2.15915985 -6.47291,3.23645 -1.16979,2.2158201 -1.68692,4.1985401 0,5.3940898 1.51294,2.4074097 4.54262,3.4042406 8.63055,0 2.12214,-2.2049697 3.24772,-5.7386698 6.47291,-6.47289995 l 12.9458,2.15763015 c -4.81848,-3.63670012 -7.55171,-9.7093601 -18.33989,-10.78818 z"
           id="path4596"
           inkscape:connector-curvature="0"
           sodipodi:nodetypes="cccccccc" />
        <path
           style="fill:#000000;fill-opacity:1;stroke:#000000;stroke-width:0.21576352px;stroke-linecap:butt;stroke-linejoin:miter;stroke-opacity:1"
           d="m 114.3376,12.311482 10.78817,-8.6305394 2.15764,-5.39408 c -6.86167,4.5616899 -8.92724,9.7380598 -12.94581,14.0246194 z"
           id="path4598"
           inkscape:connector-curvature="0"
           sodipodi:nodetypes="cccc" />
      </g>
    </g>
    <path
       style="fill:none;fill-opacity:1;stroke:#000000;stroke-width:15;stroke-linecap:round;stroke-linejoin:round;stroke-miterlimit:4;stroke-dasharray:none;stroke-opacity:1"
       d="m 44.126707,-16.039969 37.50431,-0.409316 0.29765,58.532147 h 17.561555 l -34.230145,46.25266 -38.09961,-45.43403 h 17.56154 z"
       id="path858"
       inkscape:connector-curvature="0"
       sodipodi:nodetypes="cccccccc" />
  </g>
</svg>
