<?xml version="1.0" encoding="UTF-8" standalone="no"?>
<!-- Created with Inkscape (http://www.inkscape.org/) -->

<svg
   xmlns:dc="http://purl.org/dc/elements/1.1/"
   xmlns:cc="http://creativecommons.org/ns#"
   xmlns:rdf="http://www.w3.org/1999/02/22-rdf-syntax-ns#"
   xmlns:svg="http://www.w3.org/2000/svg"
   xmlns="http://www.w3.org/2000/svg"
   xmlns:sodipodi="http://sodipodi.sourceforge.net/DTD/sodipodi-0.dtd"
   xmlns:inkscape="http://www.inkscape.org/namespaces/inkscape"
   width="201.34084mm"
   height="201.34084mm"
   viewBox="0 0 201.34083 201.34083"
   version="1.1"
   id="svg8"
   sodipodi:docname="Globe.svg"
   inkscape:version="0.92.4 (5da689c313, 2019-01-14)"
   inkscape:export-filename="D:\Downloads\Sonstiges\Neuer Ordner\Countries available.png"
   inkscape:export-xdpi="29.790001"
   inkscape:export-ydpi="29.790001">
  <defs
     id="defs2" />
  <sodipodi:namedview
     id="base"
     pagecolor="#ffffff"
     bordercolor="#666666"
     borderopacity="1.0"
     inkscape:pageopacity="0.0"
     inkscape:pageshadow="2"
     inkscape:zoom="0.70000001"
     inkscape:cx="103.84447"
     inkscape:cy="415.2496"
     inkscape:document-units="mm"
     inkscape:current-layer="layer1"
     showgrid="true"
     showguides="true"
     inkscape:snap-global="false"
     inkscape:window-width="1920"
     inkscape:window-height="1028"
     inkscape:window-x="-8"
     inkscape:window-y="-8"
     inkscape:window-maximized="1">
    <inkscape:grid
       type="xygrid"
       id="grid3717"
       originx="-15.853513"
       originy="-113.79876" />
  </sodipodi:namedview>
  <metadata
     id="metadata5">
    <rdf:RDF>
      <cc:Work
         rdf:about="">
        <dc:format>image/svg+xml</dc:format>
        <dc:type
           rdf:resource="http://purl.org/dc/dcmitype/StillImage" />
        <dc:title></dc:title>
      </cc:Work>
    </rdf:RDF>
  </metadata>
  <g
     inkscape:label="Ebene 1"
     inkscape:groupmode="layer"
     id="layer1"
     transform="translate(-15.853513,18.139595)">
    <g
       style="stroke-width:0.44827163"
       transform="matrix(2.2307902,0,0,2.2307902,-207.91315,14.61543)"
       id="g850">
      <circle
         r="41.765656"
         style="fill:none;fill-opacity:1;stroke:#130000;stroke-width:6.72407484;stroke-miterlimit:4;stroke-dasharray:none;stroke-opacity:1"
         cy="30.444544"
         cx="145.43594"
         id="path3715" />
      <path
         sodipodi:nodetypes="ccccsc"
         inkscape:connector-curvature="0"
         id="path4570"
         d="m 106.40489,24.113001 c 9.70936,-4.31528 9.70936,3.23646 18.3399,3.23645 8.63054,1.07882 3.23645,12.94581 2.15763,25.89162 -0.85164,4.83613 0,10.788175 1.69529,13.562273 -3.85292,-3.852913 -9.24701,-4.931723 -11.67435,-12.290803 -3.35062,-10.15823 -14.83375,-10.98083 -10.51847,-30.39954 z"
         style="fill:#000000;fill-opacity:1;stroke:#000000;stroke-width:0.89654332;stroke-linecap:butt;stroke-linejoin:miter;stroke-miterlimit:4;stroke-dasharray:none;stroke-opacity:1" />
      <path
         sodipodi:nodetypes="cccccccsc"
         inkscape:connector-curvature="0"
         id="path4582"
         d="m 172.88664,10.746636 c -11.09642,3.77586 -14.33288,-2.6970401 -22.96342,0.539419 -5.03606,3.136331 -6.47291,4.315261 -6.47291,9.709361 -0.71922,3.59605 0,6.4729 3.23645,10.78817 5.39409,2.15764 10.98839,-2.90124 15.10345,0 4.62351,9.16995 0.70914,16.082712 9.33968,20.397982 4.31528,1.07882 2.52732,-3.368082 7.92141,-7.683352 0,-6.47291 1.38705,-10.63406 3.29425,-17.9546 0.89588,-3.43875 -6.5307,-3.39057 -9.45891,-15.79698 z"
         style="fill:#000000;fill-opacity:1;stroke:#000000;stroke-width:1.34481495;stroke-linecap:butt;stroke-linejoin:miter;stroke-miterlimit:4;stroke-dasharray:none;stroke-opacity:1" />
      <path
         sodipodi:nodetypes="cccccccc"
         inkscape:connector-curvature="0"
         id="path4596"
         d="m 154.61179,-8.3329514 c -1.08815,1.6996299 -2.2191,4.0271199 -3.23646,6.47291 -1.67024,2.25667987 -4.31464,2.15915982 -6.47291,3.23645 -1.16979,2.2158201 -1.68692,4.1985401 0,5.3940898 1.51294,2.4074097 4.54262,3.4042406 8.63055,0 2.12214,-2.2049697 3.24772,-5.7386698 6.47291,-6.47289998 l 12.9458,2.15763018 c -4.81848,-3.6367002 -7.55171,-9.7093601 -18.33989,-10.78818 z"
         style="fill:#000000;fill-opacity:1;stroke:#000000;stroke-width:0.89654332;stroke-linecap:butt;stroke-linejoin:miter;stroke-miterlimit:4;stroke-dasharray:none;stroke-opacity:1" />
      <path
         sodipodi:nodetypes="cccc"
         inkscape:connector-curvature="0"
         id="path4598"
         d="m 110.44057,13.158662 10.78817,-8.6305394 2.15764,-5.39407997 C 116.52471,3.6957325 114.45914,8.8721024 110.44057,13.158662 Z"
         style="fill:#000000;fill-opacity:1;stroke:#000000;stroke-width:0.89654332;stroke-linecap:butt;stroke-linejoin:miter;stroke-miterlimit:4;stroke-dasharray:none;stroke-opacity:1" />
    </g>
  </g>
</svg>
